<svg width="24" height="24" viewBox="0 0 24 24" fill="none" xmlns="http://www.w3.org/2000/svg">
<path d="M9.09311 11.4922L2.94474 6.69091C2.60236 6.42305 2.37826 6.03183 2.32169 5.60319C2.26512 5.17456 2.3807 4.74358 2.64304 4.40495L2.70685 4.32716L2.87004 4.15997C3.15686 3.87329 3.5223 3.67771 3.92165 3.59716C4.321 3.51661 4.73694 3.55458 5.11857 3.70644L13.321 6.96882L15.9371 4.17298C16.4041 3.6725 17.0457 3.36991 17.7333 3.32589C18.4209 3.28187 19.1036 3.49966 19.6447 3.9356L19.7993 4.07053L19.8642 4.13542C20.9394 5.21062 20.9525 6.94056 19.8837 8.00939L17.0317 10.6776L20.2941 18.882C20.446 19.2636 20.484 19.6796 20.4034 20.0789C20.3229 20.4783 20.1273 20.8437 19.8406 21.1305L19.7462 21.2249C19.5842 21.3869 19.3891 21.5121 19.1738 21.5921C18.9585 21.6721 18.7279 21.7052 18.4974 21.6891C18.2669 21.673 18.0417 21.6082 17.8368 21.4988C17.6318 21.3895 17.4518 21.2381 17.3087 21.0548L12.5064 14.9055L10.3293 16.9408L11.0605 19.556C11.1515 19.8811 11.1553 20.2232 11.0715 20.5476C10.9877 20.8719 10.8192 21.1671 10.5831 21.4031C10.3224 21.6638 9.96708 21.8088 9.59545 21.8059C9.22383 21.8031 8.86631 21.6528 8.60153 21.388L7.13799 19.9245L6.9667 20.0698C6.55552 20.3846 6.04158 20.5374 5.52071 20.4997C4.99985 20.462 4.50761 20.2363 4.13579 19.8647C3.76396 19.4931 3.53794 19.001 3.49986 18.4802C3.46177 17.9593 3.61423 17.4453 3.9288 17.0339L4.07512 16.8616L2.61157 15.398C2.3468 15.1333 2.19647 14.7758 2.19364 14.4041C2.19082 14.0325 2.33574 13.6772 2.59653 13.4164C3.07735 12.9356 3.78238 12.7537 4.44362 12.9391L7.0578 13.6693L9.09311 11.4922ZM3.86737 5.1573L3.75431 5.27236C3.71795 5.31967 3.70207 5.37976 3.71014 5.43944C3.7182 5.49912 3.74957 5.55353 3.79735 5.59072L11.1626 11.3434L7.51562 15.248L4.0853 14.2877C3.99895 14.2637 3.90812 14.2628 3.822 14.2851C3.73588 14.3074 3.65753 14.3521 3.59485 14.4148L6.02279 16.8427L5.08918 17.8442C4.94992 17.9834 4.87253 18.1732 4.87404 18.3716C4.87554 18.5701 4.95582 18.761 5.09721 18.9024C5.2386 19.0438 5.42952 19.124 5.62796 19.1255C5.82641 19.1271 6.01613 19.0497 6.15539 18.9104L7.15489 17.9748L9.58482 20.4047L9.65156 20.322C9.6898 20.2626 9.71494 20.1955 9.72534 20.1252C9.73573 20.055 9.73114 19.9831 9.71187 19.9143L8.75056 16.483L12.6551 12.8359L18.4259 20.2232C18.5157 20.313 18.6594 20.3151 18.7479 20.2266L18.8423 20.1322C18.9378 20.0365 19.003 19.9147 19.0298 19.7815C19.0566 19.6483 19.0439 19.5096 18.9931 19.3824L15.3782 10.2906L18.8952 7.00321C19.0182 6.88051 19.1153 6.73439 19.1812 6.57321C19.247 6.41204 19.2802 6.23897 19.2789 6.06393C19.2776 5.88888 19.2417 5.71529 19.1734 5.5531C19.1051 5.39091 19.0057 5.24329 18.8809 5.1187L18.8489 5.08676C18.7202 4.96616 18.5694 4.87178 18.405 4.80902C18.2406 4.74626 18.066 4.71635 17.8911 4.721C17.7162 4.72566 17.5444 4.76478 17.3857 4.83614C17.2269 4.9075 17.0843 5.00969 16.9659 5.13686L13.706 8.62233L4.6182 5.00547C4.49097 4.95474 4.35228 4.942 4.2191 4.96879C4.08591 4.99558 3.96403 5.06075 3.86836 5.15632" fill="#97A1AF"/>
</svg>
