<svg width="24" height="24" viewBox="0 0 24 24" fill="none" xmlns="http://www.w3.org/2000/svg">
<path fill-rule="evenodd" clip-rule="evenodd" d="M3.64332 2.64332C4.05523 2.23141 4.6139 2 5.19643 2H18.375C18.9575 2 19.5162 2.23141 19.9281 2.64332C20.34 3.05523 20.5714 3.6139 20.5714 4.19642V18.1071C20.5714 18.6896 20.34 19.2483 19.9281 19.6602C19.5162 20.0721 18.9575 20.3035 18.375 20.3035H17.6428V21.7678C17.6428 22.1722 17.315 22.5 16.9107 22.5C16.5063 22.5 16.1786 22.1722 16.1786 21.7678V20.3035H7.39285V21.7678C7.39285 22.1722 7.06506 22.5 6.66071 22.5C6.25636 22.5 5.92857 22.1722 5.92857 21.7678V20.3035H5.19643C4.6139 20.3035 4.05523 20.0721 3.64332 19.6602C3.23141 19.2483 3 18.6896 3 18.1071V4.19642C3 3.6139 3.23141 3.05523 3.64332 2.64332ZM4.46428 12.9821V18.1071C4.46428 18.3013 4.54142 18.4875 4.67872 18.6248C4.81603 18.7621 5.00225 18.8393 5.19643 18.8393H18.375C18.5692 18.8393 18.7554 18.7621 18.8927 18.6248C19.03 18.4875 19.1071 18.3013 19.1071 18.1071V12.9821H4.46428ZM19.1071 11.5178H4.46428V4.19642C4.46428 4.00225 4.54142 3.81603 4.67872 3.67872C4.81603 3.54142 5.00225 3.46428 5.19643 3.46428H18.375C18.5692 3.46428 18.7554 3.54142 18.8927 3.67872C19.03 3.81603 19.1071 4.00225 19.1071 4.19642V11.5178Z" fill="#97A1AF"/>
<path fill-rule="evenodd" clip-rule="evenodd" d="M7.39313 16.2768C7.49022 16.2768 7.58333 16.2382 7.65199 16.1696C7.72064 16.1009 7.75921 16.0078 7.75921 15.9107C7.75921 15.8136 7.72064 15.7205 7.65199 15.6519C7.58333 15.5832 7.49022 15.5446 7.39313 15.5446C7.29605 15.5446 7.20294 15.5832 7.13428 15.6519C7.06563 15.7205 7.02706 15.8136 7.02706 15.9107C7.02706 16.0078 7.06563 16.1009 7.13428 16.1696C7.20294 16.2382 7.29605 16.2768 7.39313 16.2768ZM6.61658 15.1342C6.82254 14.9282 7.10187 14.8125 7.39313 14.8125C7.6844 14.8125 7.96373 14.9282 8.16969 15.1342C8.37564 15.3401 8.49135 15.6195 8.49135 15.9107C8.49135 16.202 8.37564 16.4813 8.16969 16.6873C7.96373 16.8932 7.6844 17.0089 7.39313 17.0089C7.10187 17.0089 6.82254 16.8932 6.61658 16.6873C6.41063 16.4813 6.29492 16.202 6.29492 15.9107C6.29492 15.6194 6.41063 15.3401 6.61658 15.1342ZM16.1788 16.2768C16.2759 16.2768 16.369 16.2382 16.4377 16.1696C16.5063 16.1009 16.5449 16.0078 16.5449 15.9107C16.5449 15.8136 16.5063 15.7205 16.4377 15.6519C16.369 15.5832 16.2759 15.5446 16.1788 15.5446C16.0817 15.5446 15.9886 15.5832 15.92 15.6519C15.8513 15.7205 15.8128 15.8136 15.8128 15.9107C15.8128 16.0078 15.8513 16.1009 15.92 16.1696C15.9886 16.2382 16.0817 16.2768 16.1788 16.2768ZM15.4023 15.1342C15.6082 14.9282 15.8876 14.8125 16.1788 14.8125C16.4701 14.8125 16.7494 14.9282 16.9554 15.1342C17.1613 15.3401 17.277 15.6195 17.277 15.9107C17.277 16.202 17.1613 16.4813 16.9554 16.6873C16.7494 16.8932 16.4701 17.0089 16.1788 17.0089C15.8876 17.0089 15.6082 16.8932 15.4023 16.6873C15.1963 16.4813 15.0806 16.202 15.0806 15.9107C15.0806 15.6195 15.1963 15.3401 15.4023 15.1342Z" fill="#97A1AF"/>
</svg>
